<?xml version="1.0" standalone="no"?><!DOCTYPE svg PUBLIC "-//W3C//DTD SVG 1.1//EN" "http://www.w3.org/Graphics/SVG/1.1/DTD/svg11.dtd"><svg t="1641295821714" class="icon" viewBox="0 0 1024 1024" version="1.1" xmlns="http://www.w3.org/2000/svg" p-id="3870" xmlns:xlink="http://www.w3.org/1999/xlink" width="200" height="200"><defs><style type="text/css"></style></defs><path d="M800.276612 662.542668 225.189785 662.542668c-87.853907 0-159.326728-71.408353-159.326728-159.184489 0-72.360028 49.345871-135.220704 117.636211-153.686265-0.096191-1.866511-0.14224-3.736091-0.14224-5.603625 0-60.904115 49.547463-110.453624 110.449531-110.453624 22.681582 0 44.373627 6.859221 62.564941 19.386536 40.666188-83.883479 126.177747-138.452305 221.149772-138.452305 130.917702 0 238.254336 102.845343 245.390873 231.957933 34.355459 5.02341 66.021669 21.060665 90.663906 46.213531 29.245068 29.850865 45.349861 69.278853 45.349861 111.018489 0 42.358737-16.700357 82.276888-47.02706 112.404046C881.781928 646.065392 842.139046 662.542668 800.276612 662.542668zM293.806559 273.633101c-38.835494 0-70.432119 31.597649-70.432119 70.436212 0 5.603625 0.676405 11.223622 2.006703 16.702404 1.338485 5.502317 0.281409 11.313673-2.905166 15.991206-3.188622 4.679579-8.208962 7.788383-13.818727 8.558933-58.592466 8.032954-102.776781 58.777685-102.776781 118.037347 0 65.708538 53.521984 119.166053 119.309316 119.166053l575.086827 0c31.223119 0 60.84988-12.349259 83.417875-34.770921 22.707165-22.556739 35.21299-52.394301 35.21299-84.014462 0-31.205723-12.046361-60.687174-33.917484-83.013669-21.828145-22.281469-51.016931-35.015491-82.186837-35.855626-11.000542-0.294712-19.696598-9.420557-19.465331-20.423145 0.011256-0.578168-0.010233-1.13894-0.025583-1.705851-0.021489-0.831948-0.040932-1.671059-0.040932-2.52859 0-113.393583-92.299149-205.64566-205.750037-205.64566-87.896886 0-166.111249 55.824423-194.627722 138.912793-2.358721 6.874571-8.258081 11.927657-15.413038 13.202697-7.147794 1.27197-14.435781-1.426489-19.026332-7.061836C335.00282 283.105846 315.086212 273.633101 293.806559 273.633101z" p-id="3871"></path><path d="M358.972744 819.561841c-11.04966 0-20.008706-8.959046-20.008706-20.008706l0-68.988234c0-11.04966 8.959046-20.008706 20.008706-20.008706s20.008706 8.959046 20.008706 20.008706l0 68.988234C378.981451 810.602795 370.022405 819.561841 358.972744 819.561841z" p-id="3872"></path><path d="M501.68712 939.616124c-11.04966 0-20.008706-8.959046-20.008706-20.008706L481.678414 810.601772c0-11.04966 8.959046-20.008706 20.008706-20.008706 11.04966 0 20.008706 8.959046 20.008706 20.008706L521.695826 919.607418C521.695826 930.657079 512.73678 939.616124 501.68712 939.616124z" p-id="3873"></path><path d="M644.402519 819.561841c-11.04966 0-20.008706-8.959046-20.008706-20.008706l0-68.988234c0-11.04966 8.959046-20.008706 20.008706-20.008706 11.04966 0 20.008706 8.959046 20.008706 20.008706l0 68.988234C664.411225 810.602795 655.452179 819.561841 644.402519 819.561841z" p-id="3874"></path></svg>