<?xml version="1.0" standalone="no"?><!DOCTYPE svg PUBLIC "-//W3C//DTD SVG 1.1//EN" "http://www.w3.org/Graphics/SVG/1.1/DTD/svg11.dtd"><svg t="1641295707069" class="icon" viewBox="0 0 1024 1024" version="1.1" xmlns="http://www.w3.org/2000/svg" p-id="2972" xmlns:xlink="http://www.w3.org/1999/xlink" width="200" height="200"><defs><style type="text/css"></style></defs><path d="M512.871857 751.024885c-131.681088 0-238.812037-107.130949-238.812037-238.812037 0-131.683135 107.130949-238.814084 238.812037-238.814084 131.683135 0 238.814084 107.130949 238.814084 238.814084C751.684918 643.893936 644.554992 751.024885 512.871857 751.024885zM512.871857 313.414129c-109.61656 0-198.796672 89.180112-198.796672 198.798718 0 109.61656 89.180112 198.796672 198.796672 198.796672 109.617583 0 198.798718-89.180112 198.798718-198.796672C711.670575 402.594241 622.48944 313.414129 512.871857 313.414129z" p-id="2973"></path><path d="M512.642636 223.407186c-11.048637 0-20.007683-8.958022-20.007683-20.007683L492.634954 83.752496c0-11.04966 8.958022-20.007683 20.007683-20.007683 11.04966 0 20.007683 8.958022 20.007683 20.007683l0 119.645984C532.650319 214.449163 523.692297 223.407186 512.642636 223.407186z" p-id="2974"></path><path d="M512.642636 961.40743c-11.048637 0-20.007683-8.958022-20.007683-20.007683L492.634954 821.75274c0-11.048637 8.958022-20.007683 20.007683-20.007683 11.04966 0 20.007683 8.958022 20.007683 20.007683l0 119.647007C532.650319 952.449407 523.692297 961.40743 512.642636 961.40743z" p-id="2975"></path><path d="M288.160979 308.10317c-5.120624 0-10.240225-1.952468-14.148231-5.860475l-78.743412-78.744435c-7.813966-7.813966-7.812943-20.481474 0.001023-28.29544 7.812943-7.81192 20.48045-7.812943 28.29544 0.001023l78.743412 78.744435c7.813966 7.813966 7.813966 20.481474 0 28.29544C298.401204 306.149679 293.279556 308.10317 288.160979 308.10317z" p-id="2976"></path><path d="M815.865659 835.806827c-5.120624 0-10.240225-1.953492-14.148231-5.859451l-78.743412-78.743412c-7.813966-7.813966-7.813966-20.482497 0-28.29544 7.814989-7.81192 20.48045-7.81192 28.29544 0l78.743412 78.743412c7.813966 7.813966 7.813966 20.482497 0 28.296463C826.106908 833.853335 820.987307 835.806827 815.865659 835.806827z" p-id="2977"></path><path d="M203.464995 532.583804 83.819011 532.583804c-11.04966 0-20.007683-8.958022-20.007683-20.007683s8.958022-20.007683 20.007683-20.007683l119.645984 0c11.04966 0 20.007683 8.958022 20.007683 20.007683S214.515678 532.583804 203.464995 532.583804z" p-id="2978"></path><path d="M941.465239 532.583804 821.817208 532.583804c-11.048637 0-20.007683-8.958022-20.007683-20.007683s8.959046-20.007683 20.007683-20.007683l119.647007 0c11.048637 0 20.007683 8.958022 20.007683 20.007683S952.513876 532.583804 941.465239 532.583804z" p-id="2979"></path><path d="M209.417567 835.806827c-5.120624 0-10.241248-1.953492-14.148231-5.859451-7.812943-7.813966-7.812943-20.482497 0-28.296463l78.743412-78.743412c7.813966-7.81192 20.48045-7.81192 28.296463 0 7.813966 7.813966 7.813966 20.482497 0 28.29544l-78.743412 78.743412C219.658815 833.853335 214.538191 835.806827 209.417567 835.806827z" p-id="2980"></path><path d="M737.12327 308.10317c-5.120624 0-10.240225-1.952468-14.148231-5.859451-7.813966-7.813966-7.813966-20.481474 0-28.29544l78.743412-78.744435c7.816013-7.813966 20.48045-7.814989 28.29544-0.001023 7.813966 7.813966 7.813966 20.481474 0 28.29544l-78.743412 78.744435C747.363496 306.149679 742.243895 308.10317 737.12327 308.10317z" p-id="2981"></path></svg>